{
    "asset" : {
        "generator" : "Khronos glTF Blender I/O v1.5.17",
        "version" : "2.0"
    },
    "scene" : 0,
    "scenes" : [
        {
            "name" : "Scene",
            "nodes" : [
                0,
                1,
                2,
                3,
                4
            ]
        }
    ],
    "nodes" : [
        {
            "name" : "Light",
            "rotation" : [
                0.16907575726509094,
                0.7558803558349609,
                -0.27217137813568115,
                0.570947527885437
            ],
            "translation" : [
                4.076245307922363,
                6.715280055999756,
                -1.0054539442062378
            ]
        },
        {
            "name" : "Camera",
            "rotation" : [
                0.483536034822464,
                0.33687159419059753,
                -0.20870360732078552,
                0.7804827094078064
            ],
            "translation" : [
                7.358891487121582,
                5.7697272300720215,
                6.925790786743164
            ]
        },
        {
            "mesh" : 0,
            "name" : "Bean_1",
            "rotation" : [
                0.7071068286895752,
                0,
                0,
                0.7071067094802856
            ],
            "scale" : [
                0.024432392790913582,
                0.024432392790913582,
                0.024432392790913582
            ],
            "translation" : [
                0.08232736587524414,
                0.2262163758277893,
                -1.782407283782959
            ]
        },
        {
            "mesh" : 1,
            "name" : "Bean_2",
            "rotation" : [
                0.8619600534439087,
                -0.3427219092845917,
                -0.251211941242218,
                0.2765125036239624
            ],
            "scale" : [
                0.02443239465355873,
                0.02443239465355873,
                0.02443239465355873
            ],
            "translation" : [
                0.7595291137695312,
                -0.18617290258407593,
                -1.1668143272399902
            ]
        },
        {
            "mesh" : 2,
            "name" : "Bean_3",
            "rotation" : [
                0.8294792771339417,
                -0.14434130489826202,
                0.25054746866226196,
                0.4778660237789154
            ],
            "scale" : [
                0.02443239837884903,
                0.024432390928268433,
                0.024432403966784477
            ],
            "translation" : [
                -2.5640311241149902,
                -0.8999595046043396,
                0.42498254776000977
            ]
        }
    ],
    "materials" : [
        {
            "doubleSided" : true,
            "name" : "Mat",
            "pbrMetallicRoughness" : {
                "baseColorFactor" : [
                    0.10860251635313034,
                    0.06306897103786469,
                    0.026072697713971138,
                    1
                ],
                "metallicFactor" : 0,
                "roughnessFactor" : 0.4000000059604645
            }
        }
    ],
    "meshes" : [
        {
            "name" : "Bean_1",
            "primitives" : [
                {
                    "attributes" : {
                        "POSITION" : 0,
                        "NORMAL" : 1,
                        "TEXCOORD_0" : 2
                    },
                    "indices" : 3,
                    "material" : 0
                }
            ]
        },
        {
            "name" : "Bean_2",
            "primitives" : [
                {
                    "attributes" : {
                        "POSITION" : 4,
                        "NORMAL" : 5,
                        "TEXCOORD_0" : 6
                    },
                    "indices" : 7,
                    "material" : 0
                }
            ]
        },
        {
            "name" : "Bean_3",
            "primitives" : [
                {
                    "attributes" : {
                        "POSITION" : 8,
                        "NORMAL" : 9,
                        "TEXCOORD_0" : 10
                    },
                    "indices" : 11,
                    "material" : 0
                }
            ]
        }
    ],
    "accessors" : [
        {
            "bufferView" : 0,
            "componentType" : 5126,
            "count" : 13060,
            "max" : [
                57.111610412597656,
                35.689552307128906,
                36.0910758972168
            ],
            "min" : [
                -53.2086181640625,
                -36.04988479614258,
                -10.93967056274414
            ],
            "type" : "VEC3"
        },
        {
            "bufferView" : 1,
            "componentType" : 5126,
            "count" : 13060,
            "type" : "VEC3"
        },
        {
            "bufferView" : 2,
            "componentType" : 5126,
            "count" : 13060,
            "type" : "VEC2"
        },
        {
            "bufferView" : 3,
            "componentType" : 5123,
            "count" : 67584,
            "type" : "SCALAR"
        },
        {
            "bufferView" : 4,
            "componentType" : 5126,
            "count" : 19382,
            "max" : [
                56.73881530761719,
                -41.488685607910156,
                36.04911804199219
            ],
            "min" : [
                -54.63331604003906,
                -111.83812713623047,
                -9.658178329467773
            ],
            "type" : "VEC3"
        },
        {
            "bufferView" : 5,
            "componentType" : 5126,
            "count" : 19382,
            "type" : "VEC3"
        },
        {
            "bufferView" : 6,
            "componentType" : 5126,
            "count" : 19382,
            "type" : "VEC2"
        },
        {
            "bufferView" : 7,
            "componentType" : 5123,
            "count" : 105984,
            "type" : "SCALAR"
        },
        {
            "bufferView" : 8,
            "componentType" : 5126,
            "count" : 19337,
            "max" : [
                56.267173767089844,
                -121.57518005371094,
                36.04911804199219
            ],
            "min" : [
                -58.696754455566406,
                -191.83815002441406,
                -6.91759729385376
            ],
            "type" : "VEC3"
        },
        {
            "bufferView" : 9,
            "componentType" : 5126,
            "count" : 19337,
            "type" : "VEC3"
        },
        {
            "bufferView" : 10,
            "componentType" : 5126,
            "count" : 19337,
            "type" : "VEC2"
        },
        {
            "bufferView" : 11,
            "componentType" : 5123,
            "count" : 105984,
            "type" : "SCALAR"
        }
    ],
    "bufferViews" : [
        {
            "buffer" : 0,
            "byteLength" : 156720,
            "byteOffset" : 0
        },
        {
            "buffer" : 0,
            "byteLength" : 156720,
            "byteOffset" : 156720
        },
        {
            "buffer" : 0,
            "byteLength" : 104480,
            "byteOffset" : 313440
        },
        {
            "buffer" : 0,
            "byteLength" : 135168,
            "byteOffset" : 417920
        },
        {
            "buffer" : 0,
            "byteLength" : 232584,
            "byteOffset" : 553088
        },
        {
            "buffer" : 0,
            "byteLength" : 232584,
            "byteOffset" : 785672
        },
        {
            "buffer" : 0,
            "byteLength" : 155056,
            "byteOffset" : 1018256
        },
        {
            "buffer" : 0,
            "byteLength" : 211968,
            "byteOffset" : 1173312
        },
        {
            "buffer" : 0,
            "byteLength" : 232044,
            "byteOffset" : 1385280
        },
        {
            "buffer" : 0,
            "byteLength" : 232044,
            "byteOffset" : 1617324
        },
        {
            "buffer" : 0,
            "byteLength" : 154696,
            "byteOffset" : 1849368
        },
        {
            "buffer" : 0,
            "byteLength" : 211968,
            "byteOffset" : 2004064
        }
    ],
    "buffers" : [
        {
            "byteLength" : 2216032,
            "uri" : "data:application/octet-stream;base64,"
        }
    ]
}
