{
    "asset" : {
        "generator" : "Khronos glTF Blender I/O v1.5.17",
        "version" : "2.0"
    },
    "scene" : 0,
    "scenes" : [
        {
            "name" : "Scene",
            "nodes" : [
                0,
                1,
                2,
                3,
                4,
                5,
                6,
                7,
                8,
                9
            ]
        }
    ],
    "nodes" : [
        {
            "mesh" : 0,
            "name" : "\u0426\u0438\u043b\u0438\u043d\u0434\u0440",
            "rotation" : [
                0.20398379862308502,
                0.005971238017082214,
                -0.03765622526407242,
                0.9782315492630005
            ],
            "translation" : [
                0.009088200516998768,
                0.9942720532417297,
                -2.2809981601312757e-05
            ]
        },
        {
            "mesh" : 1,
            "name" : "\u041e\u043a\u0440\u0443\u0436\u043d\u043e\u0441\u0442\u044c.006",
            "rotation" : [
                0.20398379862308502,
                0.005971238017082214,
                -0.03765622526407242,
                0.9782315492630005
            ],
            "translation" : [
                0.009088200516998768,
                0.9942720532417297,
                -2.2809981601312757e-05
            ]
        },
        {
            "mesh" : 2,
            "name" : "\u041e\u043a\u0440\u0443\u0436\u043d\u043e\u0441\u0442\u044c.005",
            "rotation" : [
                0.20398379862308502,
                0.005971238017082214,
                -0.03765622526407242,
                0.9782315492630005
            ],
            "translation" : [
                0.009088200516998768,
                0.9942720532417297,
                -2.2809981601312757e-05
            ]
        },
        {
            "mesh" : 3,
            "name" : "\u041e\u043a\u0440\u0443\u0436\u043d\u043e\u0441\u0442\u044c.004",
            "rotation" : [
                0.20398379862308502,
                0.005971238017082214,
                -0.03765622526407242,
                0.9782315492630005
            ],
            "translation" : [
                0.009088200516998768,
                0.9942720532417297,
                -2.2809981601312757e-05
            ]
        },
        {
            "mesh" : 4,
            "name" : "Bolt",
            "rotation" : [
                0.20398379862308502,
                0.005971238017082214,
                -0.03765622526407242,
                0.9782315492630005
            ],
            "translation" : [
                0.009088200516998768,
                0.9942720532417297,
                -2.2809981601312757e-05
            ]
        },
        {
            "mesh" : 5,
            "name" : "\u041e\u043a\u0440\u0443\u0436\u043d\u043e\u0441\u0442\u044c.002",
            "rotation" : [
                0.20398379862308502,
                0.005971238017082214,
                -0.03765622526407242,
                0.9782315492630005
            ],
            "translation" : [
                0.009088200516998768,
                0.9942720532417297,
                -2.2809981601312757e-05
            ]
        },
        {
            "mesh" : 6,
            "name" : "\u041e\u043a\u0440\u0443\u0436\u043d\u043e\u0441\u0442\u044c.001",
            "rotation" : [
                0.20398379862308502,
                0.005971238017082214,
                -0.03765622526407242,
                0.9782315492630005
            ],
            "translation" : [
                0.009088200516998768,
                0.9942720532417297,
                -2.2809981601312757e-05
            ]
        },
        {
            "mesh" : 7,
            "name" : "\u041e\u043a\u0440\u0443\u0436\u043d\u043e\u0441\u0442\u044c",
            "rotation" : [
                0.20398379862308502,
                0.005971238017082214,
                -0.03765622526407242,
                0.9782315492630005
            ],
            "translation" : [
                0.009088200516998768,
                0.9942720532417297,
                -2.2809981601312757e-05
            ]
        },
        {
            "mesh" : 8,
            "name" : "\u041e\u043a\u0440\u0443\u0436\u043d\u043e\u0441\u0442\u044c.003",
            "rotation" : [
                0.20398379862308502,
                0.005971238017082214,
                -0.03765622526407242,
                0.9782315492630005
            ],
            "translation" : [
                0.009097259491682053,
                0.9952555894851685,
                -0.002279579406604171
            ]
        },
        {
            "name" : "\u041a\u0430\u043c\u0435\u0440\u0430",
            "rotation" : [
                0.4236850142478943,
                0.30149397253990173,
                -0.15197384357452393,
                0.8405333757400513
            ],
            "translation" : [
                16.922836303710938,
                14.755501747131348,
                14.6270112991333
            ]
        }
    ],
    "materials" : [
        {
            "doubleSided" : true,
            "name" : "needle",
            "pbrMetallicRoughness" : {}
        },
        {
            "doubleSided" : true,
            "name" : "anisotropic",
            "pbrMetallicRoughness" : {}
        },
        {
            "doubleSided" : true,
            "name" : "glass",
            "pbrMetallicRoughness" : {}
        },
        {
            "doubleSided" : true,
            "name" : "glossy",
            "pbrMetallicRoughness" : {}
        }
    ],
    "meshes" : [
        {
            "name" : "\u0426\u0438\u043b\u0438\u043d\u0434\u0440",
            "primitives" : [
                {
                    "attributes" : {
                        "POSITION" : 0,
                        "NORMAL" : 1
                    },
                    "indices" : 2,
                    "material" : 0
                }
            ]
        },
        {
            "name" : "\u041e\u043a\u0440\u0443\u0436\u043d\u043e\u0441\u0442\u044c.006",
            "primitives" : [
                {
                    "attributes" : {
                        "POSITION" : 3,
                        "NORMAL" : 4
                    },
                    "indices" : 5,
                    "material" : 1
                }
            ]
        },
        {
            "name" : "\u041e\u043a\u0440\u0443\u0436\u043d\u043e\u0441\u0442\u044c.005",
            "primitives" : [
                {
                    "attributes" : {
                        "POSITION" : 6,
                        "NORMAL" : 7
                    },
                    "indices" : 8,
                    "material" : 2
                }
            ]
        },
        {
            "name" : "\u041e\u043a\u0440\u0443\u0436\u043d\u043e\u0441\u0442\u044c.004",
            "primitives" : [
                {
                    "attributes" : {
                        "POSITION" : 9,
                        "NORMAL" : 10
                    },
                    "indices" : 11,
                    "material" : 3
                }
            ]
        },
        {
            "name" : "Bolt",
            "primitives" : [
                {
                    "attributes" : {
                        "POSITION" : 12,
                        "NORMAL" : 13
                    },
                    "indices" : 14,
                    "material" : 2
                }
            ]
        },
        {
            "name" : "\u041e\u043a\u0440\u0443\u0436\u043d\u043e\u0441\u0442\u044c.002",
            "primitives" : [
                {
                    "attributes" : {
                        "POSITION" : 15,
                        "NORMAL" : 16
                    },
                    "indices" : 17,
                    "material" : 3
                }
            ]
        },
        {
            "name" : "\u041e\u043a\u0440\u0443\u0436\u043d\u043e\u0441\u0442\u044c.001",
            "primitives" : [
                {
                    "attributes" : {
                        "POSITION" : 18,
                        "NORMAL" : 19
                    },
                    "indices" : 20,
                    "material" : 3
                }
            ]
        },
        {
            "name" : "\u041e\u043a\u0440\u0443\u0436\u043d\u043e\u0441\u0442\u044c",
            "primitives" : [
                {
                    "attributes" : {
                        "POSITION" : 21,
                        "NORMAL" : 22
                    },
                    "indices" : 23,
                    "material" : 1
                }
            ]
        },
        {
            "name" : "\u041e\u043a\u0440\u0443\u0436\u043d\u043e\u0441\u0442\u044c.003",
            "primitives" : [
                {
                    "attributes" : {
                        "POSITION" : 24,
                        "NORMAL" : 25
                    },
                    "indices" : 26
                }
            ]
        }
    ],
    "accessors" : [
        {
            "bufferView" : 0,
            "componentType" : 5126,
            "count" : 96,
            "max" : [
                12.785318374633789,
                0.025295648723840714,
                0.025294670835137367
            ],
            "min" : [
                8.907702445983887,
                -0.025293732061982155,
                -0.025294670835137367
            ],
            "type" : "VEC3"
        },
        {
            "bufferView" : 1,
            "componentType" : 5126,
            "count" : 96,
            "type" : "VEC3"
        },
        {
            "bufferView" : 2,
            "componentType" : 5123,
            "count" : 576,
            "type" : "SCALAR"
        },
        {
            "bufferView" : 3,
            "componentType" : 5126,
            "count" : 1184,
            "max" : [
                8.938939094543457,
                0.5453423857688904,
                0.5453422665596008
            ],
            "min" : [
                5.467637538909912,
                -0.5453424453735352,
                -0.5453425049781799
            ],
            "type" : "VEC3"
        },
        {
            "bufferView" : 4,
            "componentType" : 5126,
            "count" : 1184,
            "type" : "VEC3"
        },
        {
            "bufferView" : 5,
            "componentType" : 5123,
            "count" : 6912,
            "type" : "SCALAR"
        },
        {
            "bufferView" : 6,
            "componentType" : 5126,
            "count" : 128,
            "max" : [
                5.94304084777832,
                0.5399550199508667,
                0.5399548411369324
            ],
            "min" : [
                1.0113575458526611,
                -0.5399554371833801,
                -0.539955198764801
            ],
            "type" : "VEC3"
        },
        {
            "bufferView" : 7,
            "componentType" : 5126,
            "count" : 128,
            "type" : "VEC3"
        },
        {
            "bufferView" : 8,
            "componentType" : 5123,
            "count" : 768,
            "type" : "SCALAR"
        },
        {
            "bufferView" : 9,
            "componentType" : 5126,
            "count" : 564,
            "max" : [
                4.6151041984558105,
                0.5734376311302185,
                1.0462483167648315
            ],
            "min" : [
                -4.510838985443115,
                -0.5734379887580872,
                -1.0462472438812256
            ],
            "type" : "VEC3"
        },
        {
            "bufferView" : 10,
            "componentType" : 5126,
            "count" : 564,
            "type" : "VEC3"
        },
        {
            "bufferView" : 11,
            "componentType" : 5123,
            "count" : 3384,
            "type" : "SCALAR"
        },
        {
            "bufferView" : 12,
            "componentType" : 5126,
            "count" : 10646,
            "max" : [
                2.629584789276123,
                0.06802020967006683,
                1.0325279235839844
            ],
            "min" : [
                -0.35730522871017456,
                -0.06317196041345596,
                0.5497757792472839
            ],
            "type" : "VEC3"
        },
        {
            "bufferView" : 13,
            "componentType" : 5126,
            "count" : 10646,
            "type" : "VEC3"
        },
        {
            "bufferView" : 14,
            "componentType" : 5123,
            "count" : 63009,
            "type" : "SCALAR"
        },
        {
            "bufferView" : 15,
            "componentType" : 5126,
            "count" : 375,
            "max" : [
                2.708606243133545,
                0.10212907195091248,
                1.0702100992202759
            ],
            "min" : [
                -0.3265950381755829,
                -0.10198277235031128,
                0.35268837213516235
            ],
            "type" : "VEC3"
        },
        {
            "bufferView" : 16,
            "componentType" : 5126,
            "count" : 375,
            "type" : "VEC3"
        },
        {
            "bufferView" : 17,
            "componentType" : 5123,
            "count" : 2220,
            "type" : "SCALAR"
        },
        {
            "bufferView" : 18,
            "componentType" : 5126,
            "count" : 192,
            "max" : [
                -0.11197566986083984,
                0.10000000149011612,
                2.5133309364318848
            ],
            "min" : [
                -2.2044713497161865,
                -0.10000000149011612,
                0.42083537578582764
            ],
            "type" : "VEC3"
        },
        {
            "bufferView" : 19,
            "componentType" : 5126,
            "count" : 192,
            "type" : "VEC3"
        },
        {
            "bufferView" : 20,
            "componentType" : 5123,
            "count" : 1152,
            "type" : "SCALAR"
        },
        {
            "bufferView" : 21,
            "componentType" : 5126,
            "count" : 832,
            "max" : [
                1.2588011026382446,
                0.9999998807907104,
                0.9999998211860657
            ],
            "min" : [
                -1.2233161926269531,
                -1.0000001192092896,
                -0.9999999403953552
            ],
            "type" : "VEC3"
        },
        {
            "bufferView" : 22,
            "componentType" : 5126,
            "count" : 832,
            "type" : "VEC3"
        },
        {
            "bufferView" : 23,
            "componentType" : 5123,
            "count" : 4800,
            "type" : "SCALAR"
        },
        {
            "bufferView" : 24,
            "componentType" : 5126,
            "count" : 64,
            "max" : [
                1.2588011026382446,
                0.07635660469532013,
                0.6476101875305176
            ],
            "min" : [
                1.1821436882019043,
                -0.07030128687620163,
                0.6099235415458679
            ],
            "type" : "VEC3"
        },
        {
            "bufferView" : 25,
            "componentType" : 5126,
            "count" : 64,
            "type" : "VEC3"
        },
        {
            "bufferView" : 26,
            "componentType" : 5123,
            "count" : 372,
            "type" : "SCALAR"
        }
    ],
    "bufferViews" : [
        {
            "buffer" : 0,
            "byteLength" : 1152,
            "byteOffset" : 0
        },
        {
            "buffer" : 0,
            "byteLength" : 1152,
            "byteOffset" : 1152
        },
        {
            "buffer" : 0,
            "byteLength" : 1152,
            "byteOffset" : 2304
        },
        {
            "buffer" : 0,
            "byteLength" : 14208,
            "byteOffset" : 3456
        },
        {
            "buffer" : 0,
            "byteLength" : 14208,
            "byteOffset" : 17664
        },
        {
            "buffer" : 0,
            "byteLength" : 13824,
            "byteOffset" : 31872
        },
        {
            "buffer" : 0,
            "byteLength" : 1536,
            "byteOffset" : 45696
        },
        {
            "buffer" : 0,
            "byteLength" : 1536,
            "byteOffset" : 47232
        },
        {
            "buffer" : 0,
            "byteLength" : 1536,
            "byteOffset" : 48768
        },
        {
            "buffer" : 0,
            "byteLength" : 6768,
            "byteOffset" : 50304
        },
        {
            "buffer" : 0,
            "byteLength" : 6768,
            "byteOffset" : 57072
        },
        {
            "buffer" : 0,
            "byteLength" : 6768,
            "byteOffset" : 63840
        },
        {
            "buffer" : 0,
            "byteLength" : 127752,
            "byteOffset" : 70608
        },
        {
            "buffer" : 0,
            "byteLength" : 127752,
            "byteOffset" : 198360
        },
        {
            "buffer" : 0,
            "byteLength" : 126018,
            "byteOffset" : 326112
        },
        {
            "buffer" : 0,
            "byteLength" : 4500,
            "byteOffset" : 452132
        },
        {
            "buffer" : 0,
            "byteLength" : 4500,
            "byteOffset" : 456632
        },
        {
            "buffer" : 0,
            "byteLength" : 4440,
            "byteOffset" : 461132
        },
        {
            "buffer" : 0,
            "byteLength" : 2304,
            "byteOffset" : 465572
        },
        {
            "buffer" : 0,
            "byteLength" : 2304,
            "byteOffset" : 467876
        },
        {
            "buffer" : 0,
            "byteLength" : 2304,
            "byteOffset" : 470180
        },
        {
            "buffer" : 0,
            "byteLength" : 9984,
            "byteOffset" : 472484
        },
        {
            "buffer" : 0,
            "byteLength" : 9984,
            "byteOffset" : 482468
        },
        {
            "buffer" : 0,
            "byteLength" : 9600,
            "byteOffset" : 492452
        },
        {
            "buffer" : 0,
            "byteLength" : 768,
            "byteOffset" : 502052
        },
        {
            "buffer" : 0,
            "byteLength" : 768,
            "byteOffset" : 502820
        },
        {
            "buffer" : 0,
            "byteLength" : 744,
            "byteOffset" : 503588
        }
    ],
    "buffers" : [
        {
            "byteLength" : 504332,
            "uri" : "data:application/octet-stream;base64,"
        }
    ]
}
